<svg width="80" height="40" viewBox="0 0 80 40" fill="none" xmlns="http://www.w3.org/2000/svg">
<path fill-rule="evenodd" clip-rule="evenodd" d="M9.84473 27.7221C22.3951 41.2997 50.0911 41.2675 64.7668 27.6464C61.9747 26.8703 59.5151 25.297 57.647 23.1875C45.7197 35.6938 24.4994 37.9618 10.031 27.4839C9.96415 27.4355 9.86933 27.4557 9.82251 27.5238C9.77946 27.5865 9.79315 27.6664 9.84473 27.7221Z" fill="#F8DE32"/>
<path fill-rule="evenodd" clip-rule="evenodd" d="M26.3431 2.41835C32.5518 2.41835 37.9403 6.7818 37.9403 13.5216C37.9403 20.2863 32.5834 24.5549 26.3431 24.5549C20.1025 24.5549 14.714 20.2613 14.714 13.5216C14.714 6.7818 20.134 2.41835 26.3431 2.41835ZM32.0509 13.5216C32.0509 16.9354 29.6826 19.3682 26.3431 19.3682C25.5748 19.3923 24.8099 19.2568 24.0966 18.9703C23.3834 18.6838 22.7373 18.2525 22.1991 17.7037C21.6599 17.1538 21.2399 16.4985 20.9654 15.779C20.691 15.0594 20.5679 14.2909 20.604 13.5216C20.604 10.1012 23.0035 7.63679 26.3431 7.63679C29.6826 7.63679 32.0509 10.1012 32.0509 13.5216ZM56.9594 4.96469C56.9632 3.62387 55.8957 2.52786 54.5601 2.50008H39.9365C38.5802 2.50008 37.4806 3.60384 37.4806 4.96469C37.4806 6.32573 38.5802 7.42929 39.9365 7.42929H44.4791V21.663C44.5495 23.1483 45.7701 24.3161 47.2516 24.3161C48.7332 24.3161 49.9536 23.1483 50.0239 21.663V7.42929H54.5601C55.9005 7.41223 56.9739 6.30947 56.9594 4.96469ZM12.4242 19.4436C13.7604 19.4748 14.8229 20.5797 14.8053 21.9207C14.8129 22.2408 14.7571 22.5593 14.6412 22.8578C14.5253 23.1563 14.3516 23.4289 14.13 23.6601C13.909 23.8908 13.6445 24.0754 13.3517 24.2031C13.0589 24.3308 12.7436 24.3992 12.4242 24.4042H2.78795C2.42742 24.4115 2.069 24.3473 1.73343 24.2153C1.39787 24.0832 1.09181 23.886 0.832974 23.6349C0.573634 23.3832 0.366547 23.0829 0.223602 22.751C0.0806575 22.4191 0.0046694 22.0623 0 21.7009L0 5.15314C0 3.6082 1.24817 2.35547 2.78795 2.35547C4.32773 2.35547 5.57591 3.6082 5.57591 5.15314V19.4436H12.4242Z" fill="#F3F3F6"/>
<path d="M68.7425 24.6276C74.9597 24.6276 79.9997 19.5876 79.9997 13.3704C79.9997 7.15328 74.9597 2.11328 68.7425 2.11328C62.5254 2.11328 57.4854 7.15328 57.4854 13.3704C57.4854 19.5876 62.5254 24.6276 68.7425 24.6276Z" fill="#F8DE32"/>
</svg>
