<svg width="33" height="33" viewBox="0 0 33 33" fill="none" xmlns="http://www.w3.org/2000/svg">
<g clip-path="url(#clip0_2616_204617)">
<mask id="mask0_2616_204617" style="mask-type:luminance" maskUnits="userSpaceOnUse" x="0" y="12" width="33" height="9">
<path fill-rule="evenodd" clip-rule="evenodd" d="M0 12.1357H33V20.8643H0V12.1357Z" fill="#868FAE"/>
</mask>
<g mask="url(#mask0_2616_204617)">
<path fill-rule="evenodd" clip-rule="evenodd" d="M7.41504 19.3467C7.41889 19.6189 7.53022 19.8783 7.72433 20.0673C7.91844 20.2563 8.17925 20.3592 8.44887 20.3533H12.9478C13.4444 20.3421 13.8385 19.9277 13.8293 19.4264C13.8311 19.3906 13.8311 19.3547 13.8293 19.3189C13.7839 19.7747 13.4088 20.1247 12.9552 20.1345H8.44887C8.17925 20.1405 7.91844 20.0376 7.72433 19.8486C7.53022 19.6596 7.41889 19.4002 7.41504 19.128V19.3467ZM9.4827 17.2112H12.3253C12.8211 17.199 13.2141 16.7849 13.2049 16.2843C13.2067 16.2485 13.2067 16.2126 13.2049 16.1768C13.1604 16.6333 12.7851 16.9843 12.3308 16.9943H9.4827V17.2112ZM9.4827 14.1285H12.9478C13.4439 14.1163 13.8374 13.7025 13.8293 13.2016C13.8311 13.1658 13.8311 13.1299 13.8293 13.0941C13.7847 13.5506 13.4095 13.9016 12.9552 13.9116H9.4827V14.1285ZM14.9199 19.5358C14.9427 20.0694 15.3779 20.4901 15.907 20.4901C16.4359 20.4901 16.8712 20.0694 16.8939 19.5358V19.3208C16.8553 19.8423 16.4249 20.2455 15.907 20.2455C15.3889 20.2455 14.9586 19.8423 14.9199 19.3208V19.5358ZM16.8939 15.7653L19.9606 19.9566C20.1862 20.2869 20.5622 20.4795 20.9595 20.4682C21.2694 20.4823 21.5717 20.369 21.7973 20.1541C22.0229 19.9393 22.1527 19.6413 22.1568 19.3282V19.1132C22.1527 19.4261 22.0229 19.7239 21.7972 19.9385C21.5715 20.153 21.2692 20.2659 20.9595 20.2514C20.5624 20.2634 20.1864 20.0715 19.9606 19.7416L16.8939 15.5447V15.7653ZM23.3431 16.3344C23.3431 18.824 25.341 20.4738 27.6786 20.4738C29.2045 20.4738 30.6056 19.7694 31.3787 18.5552C31.3273 18.5552 31.2758 18.5589 31.2244 18.5663C30.4274 19.6396 29.1072 20.2569 27.6786 20.2569C25.374 20.2569 23.4 18.6572 23.3449 16.2251C23.3449 16.2622 23.3449 16.2974 23.3449 16.3344H23.3431ZM27.6804 14.1285C28.6309 14.107 29.4735 14.7426 29.7222 15.6689L29.7609 15.617C29.6872 15.2113 29.4954 14.837 29.21 14.5419C28.8121 14.1241 28.2578 13.8958 27.684 13.9135C27.1065 13.8958 26.5481 14.1238 26.1452 14.5419C25.7413 14.9637 25.5245 15.5331 25.5447 16.1194C25.5447 16.1546 25.5447 16.1917 25.5447 16.2269C25.5494 15.6774 25.7639 15.1509 26.1433 14.7569C26.5463 14.3389 27.1047 14.1109 27.6822 14.1285H27.6804Z" fill="#0B7CAD"/>
<path fill-rule="evenodd" clip-rule="evenodd" d="M13.8236 19.532C13.8256 19.4981 13.8256 19.464 13.8236 19.4301C13.8319 18.9292 13.4383 18.5154 12.9423 18.5032H9.4827V18.709H12.9478C13.4044 18.7192 13.7809 19.073 13.8236 19.532ZM13.2012 16.3807C13.2012 16.3473 13.2012 16.314 13.2012 16.2787C13.2094 15.7778 12.8159 15.364 12.3198 15.3519H9.4827V15.5558H12.3253C12.7815 15.5668 13.1576 15.9202 13.2012 16.3788V16.3807ZM13.8236 13.2961C13.8514 13.0407 13.7729 12.7852 13.6068 12.5905C13.4408 12.3958 13.202 12.2795 12.9478 12.2692H8.44887C8.17799 12.2632 7.91607 12.3671 7.72175 12.5577C7.52742 12.7483 7.41694 13.0096 7.41504 13.2831V13.4871C7.4184 13.2145 7.52952 12.9546 7.72368 12.7653C7.91786 12.5759 8.17894 12.4727 8.44887 12.4786H12.9478C13.4041 12.4897 13.7802 12.8431 13.8236 13.3017V13.2961ZM22.1568 13.3202V13.1163C22.1339 12.5827 21.6988 12.162 21.1697 12.162C20.6407 12.162 20.2056 12.5827 20.1827 13.1163V13.3202C20.2056 12.7866 20.6407 12.3659 21.1697 12.3659C21.6988 12.3659 22.1339 12.7866 22.1568 13.3202ZM20.1827 16.8646L17.1051 12.6937C16.8722 12.3714 16.5031 12.1779 16.1081 12.1709C15.8007 12.163 15.5028 12.2786 15.28 12.4924C15.0571 12.7063 14.9277 13.0007 14.9199 13.311V13.5149C14.9277 13.2048 15.0572 12.9105 15.2801 12.697C15.5029 12.4835 15.8009 12.3682 16.1081 12.3767C16.5029 12.3829 16.872 12.5758 17.1051 12.8976L20.1827 17.0722V16.8646ZM23.3431 16.3307C23.3431 16.3641 23.3431 16.3974 23.3431 16.4327C23.3963 13.9653 25.363 12.373 27.6767 12.373C29.4193 12.3359 31.072 13.3777 31.7165 14.9849L31.8028 15.0146C31.2318 13.2832 29.5038 12.1339 27.6786 12.1709C25.341 12.1709 23.3431 13.8078 23.3431 16.3344V16.3307ZM29.5386 17.4726C29.4489 17.6326 29.3391 17.7803 29.2118 17.9119C28.8074 18.3263 28.2489 18.5497 27.673 18.5273C27.101 18.5497 26.5463 18.3261 26.147 17.9119C25.7658 17.5138 25.5513 16.9826 25.5484 16.4289V16.5309C25.5275 17.1169 25.7436 17.6864 26.147 18.1084C26.5463 18.5226 27.101 18.7462 27.673 18.7238C28.4807 18.7562 29.2316 18.305 29.5882 17.5727C29.5717 17.5374 29.5533 17.5022 29.5386 17.4651V17.4726Z" fill="#50C2EF"/>
<path fill-rule="evenodd" clip-rule="evenodd" d="M0.363164 19.8306C0.376206 20.3955 0.837331 20.8444 1.397 20.8372C1.95354 20.8366 2.41011 20.392 2.43083 19.8306V18.229L3.04231 17.5895L4.89881 20.3997C5.08674 20.6771 5.3996 20.8413 5.73249 20.8372C6.01117 20.8415 6.27843 20.7255 6.467 20.5183C6.65743 20.3187 6.76628 20.0539 6.77183 19.7768C6.77349 19.5818 6.7158 19.3909 6.60657 19.23L4.43973 16.1306L6.27603 14.186C6.43236 14.0154 6.51667 13.79 6.51108 13.5576C6.50535 13.0054 6.06812 12.5567 5.52131 12.5418C5.25306 12.5376 4.99606 12.6504 4.81618 12.8513L2.429 15.5429V13.5446C2.429 12.9682 1.96613 12.501 1.39516 12.501C0.824191 12.501 0.361328 12.9682 0.361328 13.5446L0.363164 19.8306Z" fill="#D9831D"/>
<path fill-rule="evenodd" clip-rule="evenodd" d="M0.00183629 19.4654C0.0148769 20.0302 0.476002 20.4792 1.03567 20.4719C1.59222 20.4713 2.04878 20.0268 2.0695 19.4654V17.8638L2.68099 17.2242L4.53748 20.0345C4.72541 20.3119 5.03828 20.476 5.37116 20.4719C5.64984 20.4763 5.9171 20.3603 6.10568 20.1531C6.29518 19.9529 6.40388 19.6885 6.4105 19.4116C6.41181 19.2166 6.35415 19.0258 6.24523 18.8648L4.07841 15.7653L5.9147 13.8208C6.07104 13.6501 6.15535 13.4247 6.14975 13.1924C6.14697 12.638 5.70891 12.186 5.15998 12.171C4.89173 12.1668 4.63473 12.2796 4.45485 12.4805L2.06766 15.1721V13.1794C2.06766 12.603 1.6048 12.1357 1.03383 12.1357C0.462863 12.1357 1.70163e-08 12.603 0 13.1794L0.00183629 19.4654Z" fill="#FDCB00"/>
</g>
<mask id="mask1_2616_204617" style="mask-type:luminance" maskUnits="userSpaceOnUse" x="0" y="12" width="7" height="9">
<path fill-rule="evenodd" clip-rule="evenodd" d="M4.45485 12.4805L2.06766 15.1721V13.1794C2.06766 12.603 1.6048 12.1357 1.03383 12.1357C0.462863 12.1357 1.70163e-08 12.603 0 13.1794V19.4654C0.0130405 20.0302 0.474166 20.4792 1.03383 20.4719C1.59038 20.4713 2.04694 20.0268 2.06766 19.4654V17.8638L2.67916 17.2242L4.53381 20.0345C4.72276 20.3116 5.03602 20.4757 5.36932 20.4719C5.648 20.4763 5.91527 20.3603 6.10384 20.1531C6.29334 19.9529 6.40204 19.6885 6.40866 19.4116C6.40971 19.2169 6.35276 19.0264 6.24523 18.8648L4.07841 15.7653L5.9147 13.8208C6.07104 13.6501 6.15535 13.4247 6.14975 13.1924C6.1489 12.6372 5.70974 12.184 5.15998 12.171C4.89197 12.1661 4.63492 12.2782 4.45485 12.4787" fill="white"/>
</mask>
<g mask="url(#mask1_2616_204617)">
<path d="M0.00195312 16.3993H32.9065V23.6678H0.00195312V16.3993Z" fill="#EABC05"/>
</g>
<path fill-rule="evenodd" clip-rule="evenodd" d="M7.77637 19.7119C7.78022 19.9843 7.8915 20.2439 8.08556 20.4332C8.27961 20.6224 8.54042 20.7258 8.81021 20.7204H13.3092C13.8162 20.7204 14.2272 20.3054 14.2272 19.7935C14.2272 19.2816 13.8162 18.8666 13.3092 18.8666H9.84404V17.569H12.6866C13.1937 17.569 13.6048 17.1541 13.6048 16.6422C13.6048 16.1303 13.1937 15.7153 12.6866 15.7153H9.84404V14.4826H13.3092C13.8162 14.4826 14.2272 14.0676 14.2272 13.5557C14.2272 13.0438 13.8162 12.6289 13.3092 12.6289H8.81021C8.53743 12.6229 8.27381 12.7283 8.07915 12.9213C7.8845 13.1143 7.77532 13.3785 7.77637 13.654V19.7119ZM15.2813 19.8973C15.3199 20.4188 15.7503 20.822 16.2684 20.822C16.7863 20.822 17.2167 20.4188 17.2553 19.8973V16.1306L20.322 20.3274C20.5469 20.6573 20.9225 20.8492 21.3191 20.8372C21.629 20.8518 21.9314 20.7389 22.1574 20.5244C22.3833 20.3099 22.5135 20.0121 22.5182 19.699V13.4853C22.4953 12.9517 22.0602 12.531 21.5311 12.531C21.0021 12.531 20.5669 12.9517 20.5442 13.4853V17.2335L17.4665 13.0589C17.2327 12.7385 16.8636 12.5471 16.4694 12.5418C16.1623 12.5333 15.8643 12.6485 15.6415 12.8621C15.4186 13.0756 15.2891 13.3698 15.2813 13.6799V19.8973ZM23.7044 16.6959C23.7044 19.1855 25.7022 20.8335 28.0399 20.8335C29.7899 20.8335 31.3782 19.9066 32.0375 18.3495C31.2979 18.7436 30.387 18.5751 29.8339 17.9416C29.7577 18.0608 29.6697 18.172 29.5714 18.2735C29.1669 18.6879 28.6084 18.9113 28.0326 18.8889C27.4604 18.9113 26.9059 18.6876 26.5066 18.2735C25.7083 17.3776 25.7083 16.018 26.5066 15.1221C26.9095 14.7041 27.4679 14.4761 28.0454 14.4937C28.6192 14.4761 29.1735 14.7044 29.5714 15.1221C29.6821 15.2343 29.7801 15.3587 29.8633 15.4929C30.4312 14.8731 31.3455 14.726 32.0761 15.137C31.4316 13.5316 29.7807 12.4935 28.0363 12.5306C25.6987 12.5306 23.7008 14.1656 23.7008 16.6922L23.7044 16.6959Z" fill="#066C96"/>
<path fill-rule="evenodd" clip-rule="evenodd" d="M7.41504 19.3467C7.4189 19.6191 7.53018 19.8787 7.72422 20.068C7.91828 20.2572 8.17908 20.3606 8.44887 20.3552H12.9478C13.4548 20.3552 13.866 19.9402 13.866 19.4283C13.866 18.9164 13.4548 18.5014 12.9478 18.5014H9.4827V17.2038H12.3253C12.8324 17.2038 13.2434 16.7889 13.2434 16.277C13.2434 15.7651 12.8324 15.3501 12.3253 15.3501H9.4827V14.1174H12.9478C13.4548 14.1174 13.866 13.7024 13.866 13.1905C13.866 12.6786 13.4548 12.2636 12.9478 12.2636H8.44887C8.17704 12.2577 7.91428 12.3624 7.71979 12.5542C7.5253 12.746 7.41546 13.0087 7.41504 13.2832V19.3467ZM14.9219 19.5321C14.9537 20.0583 15.3856 20.4686 15.9079 20.4686C16.4301 20.4686 16.8622 20.0583 16.894 19.5321V15.7654L19.9606 19.9566C20.1864 20.2865 20.5625 20.4784 20.9596 20.4664C21.269 20.481 21.5709 20.3683 21.7965 20.1542C22.0222 19.94 22.1521 19.6427 22.1568 19.3301V13.1201C22.134 12.5865 21.6989 12.1658 21.1699 12.1658C20.6408 12.1658 20.2056 12.5865 20.1828 13.1201V16.8683L17.1051 12.6937C16.8724 12.3712 16.5033 12.1777 16.1081 12.171C15.8011 12.1625 15.5034 12.2778 15.2808 12.4914C15.0582 12.705 14.929 12.9992 14.9219 13.3092V19.5321ZM23.3431 16.3307C23.3431 18.8203 25.341 20.4682 27.6786 20.4682C29.2045 20.4682 30.6056 19.7657 31.3787 18.5515C31.3177 18.5587 31.2564 18.5624 31.1951 18.5626C30.4783 18.5604 29.8302 18.1316 29.5423 17.4689C29.4526 17.629 29.3427 17.7766 29.2155 17.9082C28.8111 18.3227 28.2526 18.5461 27.6767 18.5237C27.1047 18.5461 26.55 18.3224 26.1507 17.9082C25.3525 17.0123 25.3525 15.6528 26.1507 14.7569C26.5537 14.3389 27.1121 14.1109 27.6896 14.1285C28.6367 14.1113 29.4743 14.746 29.7224 15.6689C30.1957 15.0084 31.0445 14.7431 31.8047 15.0183C31.2318 13.2832 29.5056 12.1339 27.6786 12.171C25.341 12.171 23.3431 13.8059 23.3431 16.3326V16.3307Z" fill="#009CD8"/>
<mask id="mask2_2616_204617" style="mask-type:luminance" maskUnits="userSpaceOnUse" x="7" y="12" width="25" height="9">
<path fill-rule="evenodd" clip-rule="evenodd" d="M8.44887 12.2784C8.17957 12.2725 7.91903 12.3752 7.72497 12.5638C7.53092 12.7524 7.41938 13.0113 7.41504 13.2832V19.343C7.41889 19.6152 7.53023 19.8746 7.72434 20.0636C7.91845 20.2526 8.17925 20.3555 8.44887 20.3496H12.9478C13.4548 20.3496 13.866 19.9346 13.866 19.4227C13.866 18.9108 13.4548 18.4958 12.9478 18.4958H9.4827V17.1982H12.3253C12.8324 17.1982 13.2434 16.7833 13.2434 16.2714C13.2434 15.7595 12.8324 15.3445 12.3253 15.3445H9.4827V14.1118H12.9478C13.4548 14.1118 13.866 13.6968 13.866 13.1849C13.866 12.673 13.4548 12.2581 12.9478 12.2581L8.44887 12.2784ZM20.1828 13.1201V16.8683L17.1051 12.6937C16.8724 12.3712 16.5033 12.1777 16.1081 12.171C15.8011 12.1625 15.5034 12.2778 15.2808 12.4914C15.0582 12.705 14.929 12.9992 14.9219 13.3092V19.534C14.9537 20.0602 15.3856 20.4705 15.9079 20.4705C16.4301 20.4705 16.8622 20.0602 16.894 19.534V15.7654L19.9606 19.9566C20.1864 20.2865 20.5625 20.4784 20.9596 20.4664C21.2693 20.481 21.5716 20.3681 21.7972 20.1535C22.0229 19.939 22.1527 19.6411 22.1568 19.3282V13.1201C22.134 12.5865 21.6989 12.1658 21.1699 12.1658C20.6408 12.1658 20.2056 12.5865 20.1828 13.1201ZM27.7667 12.171H27.6786C25.341 12.171 23.3431 13.806 23.3431 16.3326C23.3431 18.8221 25.341 20.4701 27.6786 20.4701C29.2045 20.4701 30.6056 19.7675 31.3787 18.5533C31.3177 18.5606 31.2564 18.5643 31.1951 18.5645C30.4783 18.5623 29.8302 18.1334 29.5423 17.4708C29.4526 17.6308 29.3428 17.7785 29.2155 17.9101C28.8111 18.3245 28.2526 18.5479 27.6767 18.5255C27.1047 18.548 26.55 18.3243 26.1507 17.9101C25.3525 17.0142 25.3525 15.6547 26.1507 14.7588C26.5537 14.3407 27.1121 14.1127 27.6896 14.1304C28.6396 14.1086 29.4819 14.7433 29.7316 15.6689C30.0729 15.1938 30.6191 14.9125 31.2006 14.9126C31.4097 14.912 31.6172 14.9484 31.8138 15.0201C31.241 13.3055 29.5607 12.171 27.7667 12.171Z" fill="white"/>
</mask>
<g mask="url(#mask2_2616_204617)">
<path d="M-2.84473 16.3993H34.5587V23.6678H-2.84473V16.3993Z" fill="#078CC3"/>
</g>
<mask id="mask3_2616_204617" style="mask-type:luminance" maskUnits="userSpaceOnUse" x="0" y="12" width="33" height="9">
<path fill-rule="evenodd" clip-rule="evenodd" d="M0 12.1357H33V20.8643H0V12.1357Z" fill="white"/>
</mask>
<g mask="url(#mask3_2616_204617)">
<path fill-rule="evenodd" clip-rule="evenodd" d="M0.00195312 19.4653C0.0149891 20.0304 0.475817 20.4799 1.03579 20.4737C1.59264 20.4721 2.04893 20.027 2.06962 19.4653V19.2502C2.0489 19.8117 1.59233 20.2562 1.03579 20.2568C0.476119 20.2641 0.0149936 19.8151 0.00195312 19.2502V19.4653ZM2.06965 17.8636L2.68113 17.2241L4.53762 20.0343C4.72535 20.3122 5.03815 20.477 5.3713 20.4737C5.65022 20.4773 5.91744 20.3606 6.10581 20.153C6.29624 19.9533 6.40509 19.6886 6.41064 19.4115C6.41252 19.3757 6.41252 19.3398 6.41064 19.304C6.38068 19.5438 6.27585 19.7678 6.11132 19.9435C5.92276 20.1507 5.65549 20.2667 5.37681 20.2623C5.04393 20.2664 4.73105 20.1023 4.54313 19.8249L2.68113 17.009L2.06965 17.6486V17.8636ZM4.16485 15.6725L5.92219 13.8188C6.07851 13.6482 6.16283 13.4227 6.15723 13.1904C6.15915 13.1552 6.15915 13.1199 6.15723 13.0847C6.14007 13.2787 6.05929 13.4614 5.92769 13.6038L4.09139 15.5483L4.16485 15.6725Z" fill="#F49F17"/>
<path fill-rule="evenodd" clip-rule="evenodd" d="M6.41063 19.5079C6.41246 19.474 6.41246 19.44 6.41063 19.406C6.41194 19.211 6.35429 19.0202 6.24536 18.8591L4.16117 15.8784L4.07853 15.9655L6.25087 19.0612C6.34048 19.1928 6.39545 19.3453 6.41063 19.5042M6.15354 13.2924C6.15354 13.259 6.15354 13.2238 6.15354 13.1886C6.1497 12.6339 5.70946 12.1829 5.1601 12.1709C4.89209 12.166 4.63504 12.2782 4.45497 12.4786L2.06779 15.1702V15.3741L4.45497 12.6825C4.63504 12.4821 4.89209 12.3699 5.1601 12.3748C5.67624 12.3846 6.10331 12.783 6.15354 13.3017M2.06962 13.3888V13.1849C2.06962 12.6085 1.60676 12.1412 1.03579 12.1412C0.464816 12.1412 0.00195312 12.6085 0.00195312 13.1849V13.3888C0.00195312 12.8124 0.464816 12.3451 1.03579 12.3451C1.60676 12.3451 2.06962 12.8124 2.06962 13.3888Z" fill="#FEE26E"/>
<path fill-rule="evenodd" clip-rule="evenodd" d="M31.1915 14.9106C32.1915 14.9106 33.0021 15.729 33.0021 16.7384C33.0021 17.7479 32.1915 18.5662 31.1915 18.5662C30.1915 18.5662 29.3809 17.7479 29.3809 16.7384C29.3809 15.729 30.1915 14.9106 31.1915 14.9106Z" fill="#C68B1A"/>
<path fill-rule="evenodd" clip-rule="evenodd" d="M31.0411 14.7864C32.0411 14.7864 32.8517 15.6047 32.8517 16.6141C32.8517 17.6236 32.0411 18.4419 31.0411 18.4419C30.0412 18.4419 29.2305 17.6236 29.2305 16.6141C29.23 16.1292 29.4206 15.6641 29.7603 15.3212C30.0999 14.9783 30.5607 14.7859 31.0411 14.7864Z" fill="#FDCB00"/>
</g>
<mask id="mask4_2616_204617" style="mask-type:luminance" maskUnits="userSpaceOnUse" x="29" y="14" width="4" height="5">
<path fill-rule="evenodd" clip-rule="evenodd" d="M29.2305 16.6199C29.2305 17.6293 30.0412 18.4477 31.0411 18.4477C32.0411 18.4477 32.8517 17.6293 32.8517 16.6199C32.8517 15.6104 32.0411 14.7921 31.0411 14.7921C30.0412 14.7921 29.2305 15.6104 29.2305 16.6199Z" fill="white"/>
</mask>
<g mask="url(#mask4_2616_204617)">
<path d="M25.5361 16.4066H33.412V18.6051H25.5361V16.4066Z" fill="#EDBE04"/>
</g>
<path fill-rule="evenodd" clip-rule="evenodd" d="M32.8439 16.542V16.6199C32.8649 17.2864 32.5247 17.9116 31.9562 18.2512C31.3875 18.5907 30.6809 18.5907 30.1124 18.2512C29.5438 17.9116 29.2035 17.2864 29.2246 16.6199V16.5476C29.2557 17.5339 30.0567 18.3171 31.0343 18.3171C32.0118 18.3171 32.8128 17.5339 32.8439 16.5476" fill="#D79D17"/>
<path fill-rule="evenodd" clip-rule="evenodd" d="M31.0408 14.7865C31.5209 14.788 31.9807 14.982 32.3188 15.3259C32.6571 15.6698 32.8461 16.1353 32.8441 16.6198V16.7014C32.8005 15.7249 32.0036 14.9559 31.0353 14.9559C30.0671 14.9559 29.2701 15.7249 29.2266 16.7014C29.2266 16.6736 29.2266 16.6476 29.2266 16.6198C29.2261 16.1349 29.4167 15.6697 29.7564 15.3269C30.096 14.984 30.5568 14.7916 31.0372 14.7921" fill="#FEE05D"/>
<path fill-rule="evenodd" clip-rule="evenodd" d="M31.0402 15.4966C31.6487 15.4966 32.142 15.9946 32.142 16.6088C32.142 17.2231 31.6487 17.7211 31.0402 17.7211C30.4317 17.7211 29.9385 17.2231 29.9385 16.6088C29.9385 15.9946 30.4317 15.4966 31.0402 15.4966Z" fill="#FDCB00"/>
<path fill-rule="evenodd" clip-rule="evenodd" d="M32.1459 16.5698V16.6199C32.1459 17.2342 31.6527 17.7321 31.0442 17.7321C30.4357 17.7321 29.9424 17.2342 29.9424 16.6199V16.5754C29.9424 17.1897 30.4357 17.6876 31.0442 17.6876C31.6527 17.6876 32.1459 17.1897 32.1459 16.5754" fill="#D79D17"/>
<path fill-rule="evenodd" clip-rule="evenodd" d="M31.0402 15.4966C31.6487 15.4966 32.142 15.9945 32.142 16.6088C32.142 16.6255 32.142 16.6422 32.142 16.6589C32.142 16.0446 31.6487 15.5466 31.0402 15.5466C30.4317 15.5466 29.9385 16.0446 29.9385 16.6589V16.6199C29.9385 16.0057 30.4317 15.5077 31.0402 15.5077" fill="#FEE05D"/>
<path fill-rule="evenodd" clip-rule="evenodd" d="M31.0403 15.9061C31.4274 15.9072 31.7406 16.2246 31.7398 16.6155C31.7392 17.0063 31.425 17.3227 31.0377 17.3224C30.6506 17.322 30.3369 17.0051 30.3369 16.6143C30.3369 16.4261 30.4111 16.2457 30.5431 16.1129C30.675 15.98 30.8539 15.9056 31.0403 15.9061Z" fill="#FEE05D"/>
</g>
<defs>
<clipPath id="clip0_2616_204617">
<rect width="33" height="33" fill="white"/>
</clipPath>
</defs>
</svg>
